<?xml version="1.0" standalone="no"?>
<!DOCTYPE svg PUBLIC "-//W3C//DTD SVG 20010904//EN"
 "http://www.w3.org/TR/2001/REC-SVG-20010904/DTD/svg10.dtd">
<svg version="1.0" xmlns="http://www.w3.org/2000/svg"
 width="300.000000pt" height="273.000000pt" viewBox="0 0 300.000000 273.000000"
 preserveAspectRatio="xMidYMid meet">
<metadata>
Created by potrace 1.10, written by Peter Selinger 2001-2011
</metadata>
<g transform="translate(0.000000,273.000000) scale(0.100000,-0.100000)"
fill="#000000" stroke="none">
<path d="M1195 2705 c-191 -44 -342 -131 -481 -277 -230 -240 -312 -606 -208
-926 102 -311 367 -553 687 -627 206 -47 414 -22 612 74 405 195 611 642 500
1085 -24 94 -117 271 -186 354 -112 135 -279 246 -454 302 -59 19 -97 23 -240
26 -121 3 -187 -1 -230 -11z m425 -50 c36 -9 103 -35 148 -56 438 -203 636
-709 452 -1153 -36 -86 -111 -205 -157 -248 -44 -42 -289 -108 -399 -108 -37
0 -44 -3 -44 -20 0 -11 6 -20 13 -20 44 0 216 33 282 54 43 14 81 24 82 22 2
-2 -27 -24 -64 -50 -55 -37 -83 -49 -146 -61 -43 -8 -99 -15 -123 -15 -36 0
-44 -3 -44 -18 0 -16 6 -17 58 -11 99 13 110 9 42 -15 -36 -13 -77 -26 -92
-30 l-28 -6 0 187 c1 129 5 195 13 210 7 12 47 54 90 94 87 80 148 163 183
250 49 120 23 153 -32 42 -61 -121 -154 -172 -243 -133 -60 27 -61 51 -7 121
25 32 46 68 46 78 0 20 -22 34 -42 25 -22 -9 -140 -184 -150 -223 -7 -23 -8
-148 -3 -353 l7 -318 -21 0 c-20 0 -21 3 -16 152 3 84 7 264 10 401 4 207 7
252 21 272 9 14 52 55 95 91 43 35 87 80 98 98 31 50 25 55 -9 8 -16 -23 -66
-67 -111 -98 -113 -80 -119 -91 -119 -240 0 -216 -13 -694 -19 -689 -9 9 0
776 9 820 5 22 12 132 16 245 l7 205 34 28 c18 16 40 41 47 55 49 97 13 259
-81 362 -35 40 -63 52 -63 27 0 -6 -15 -44 -34 -82 -50 -106 -59 -140 -54
-216 6 -81 30 -126 81 -154 l37 -20 -1 -160 c-1 -184 -10 -283 -23 -247 -4 12
-46 54 -92 93 -47 39 -90 82 -96 95 -6 13 -15 24 -20 24 -22 0 33 -73 113
-150 l89 -86 2 -99 c1 -55 1 -113 1 -130 0 -16 -1 -159 -2 -317 -1 -257 -3
-288 -17 -288 -12 0 -15 6 -10 23 3 12 6 165 7 340 1 360 10 319 -95 460 -58
79 -78 91 -96 58 -8 -16 -1 -30 35 -80 25 -34 45 -69 45 -79 0 -44 -69 -74
-139 -59 -57 12 -131 83 -156 152 -22 61 -27 66 -43 56 -11 -7 -11 -17 -2 -52
30 -109 127 -252 220 -324 86 -66 90 -80 90 -295 l0 -182 -32 7 c-18 4 -48 14
-68 21 -35 14 -35 14 23 9 44 -4 57 -2 57 9 0 17 -43 26 -124 26 -50 0 -70 6
-111 31 l-50 30 143 -4 c109 -3 142 -1 142 8 0 18 -74 27 -204 24 -94 -2 -116
1 -139 16 -17 10 -24 22 -19 27 13 13 239 21 305 10 51 -8 57 -7 57 8 0 12
-11 19 -37 24 -62 10 -231 7 -302 -5 l-65 -12 -44 49 c-97 110 -176 268 -207
414 -19 91 -19 269 0 359 73 347 342 618 690 695 92 20 313 16 405 -9z m-196
-87 c61 -81 89 -219 58 -290 -24 -55 -39 -47 -47 22 -10 90 -28 63 -24 -36 3
-51 0 -84 -6 -84 -6 0 -10 38 -10 94 0 75 -3 92 -13 84 -7 -6 -10 -13 -8 -16
3 -2 1 -12 -4 -22 -5 -9 -10 -34 -12 -54 -3 -43 -14 -42 -40 5 -31 56 -21 155
24 252 21 42 42 77 47 77 6 0 21 -15 35 -32z m176 -1020 c43 -22 96 -23 145
-2 20 8 40 13 42 10 10 -9 -43 -71 -112 -132 -101 -88 -105 -100 -105 -308 0
-115 4 -177 11 -182 18 -11 -4 -23 -51 -30 l-45 -6 -3 331 c-4 325 -3 332 18
366 l22 35 22 -32 c12 -18 37 -41 56 -50z m-297 31 c16 -31 17 -58 11 -354 -3
-176 -8 -322 -10 -324 -2 -2 -23 0 -47 3 l-45 7 8 35 c5 19 8 103 9 187 0 183
-8 207 -102 288 -64 54 -136 139 -119 139 5 0 26 -7 45 -15 75 -31 167 -8 195
49 17 34 32 30 55 -15z"/>
<path d="M1080 2451 c-106 -111 -120 -290 -30 -376 l29 -28 -6 54 c-3 33 1 80
11 122 18 77 20 101 7 93 -11 -7 -45 -116 -43 -138 2 -33 -17 -19 -24 17 -8
46 1 116 22 157 17 34 63 88 75 88 14 0 40 -111 40 -176 0 -71 -11 -117 -32
-129 -9 -6 -10 2 -4 31 18 94 21 144 11 154 -8 8 -16 -19 -28 -92 -16 -98 -15
-168 2 -168 19 0 61 65 76 118 14 48 15 68 6 128 -13 82 -48 184 -64 184 -6 0
-28 -18 -48 -39z"/>
<path d="M1644 2455 c-52 -126 -57 -260 -11 -338 29 -49 54 -66 64 -41 6 16
-1 106 -16 199 -7 46 -8 48 -18 26 -6 -15 -6 -42 -1 -73 5 -27 7 -59 5 -71 -3
-19 -6 -17 -20 14 -11 25 -15 57 -13 100 3 65 31 169 46 169 13 0 59 -59 74
-94 20 -48 27 -100 20 -145 -11 -67 -22 -54 -40 44 -3 17 -14 44 -25 60 -14
20 -19 23 -15 10 21 -86 28 -139 24 -198 -1 -37 0 -67 3 -67 10 0 46 44 65 80
26 50 25 160 -3 222 -21 46 -97 138 -115 138 -5 0 -16 -16 -24 -35z"/>
<path d="M1982 2235 c-84 -31 -136 -66 -155 -108 -18 -37 -23 -117 -8 -117 14
0 63 63 94 119 18 35 38 57 62 68 19 9 37 14 41 11 8 -9 -13 -79 -37 -117 -14
-23 -24 -30 -31 -23 -7 7 -6 17 2 32 6 12 9 24 6 27 -2 3 -1 16 4 29 20 51 -2
20 -36 -51 -26 -54 -46 -83 -72 -100 l-37 -25 30 0 c104 1 212 126 203 237
l-3 41 -63 -23z"/>
<path d="M744 2204 c16 -115 92 -206 185 -220 l43 -7 -43 44 c-25 25 -50 63
-58 87 -8 23 -21 48 -29 55 -16 13 -16 15 3 -70 6 -26 -1 -29 -18 -10 -31 33
-56 110 -40 120 5 3 23 -1 40 -10 22 -10 42 -35 68 -84 32 -61 65 -99 87 -99
13 0 9 68 -6 103 -26 62 -107 116 -200 133 l-39 7 7 -49z"/>
<path d="M1236 2073 c10 -86 33 -121 108 -169 29 -18 29 -18 18 2 -6 12 -14
43 -17 70 -9 67 -33 113 -69 135 -17 10 -35 19 -39 19 -5 0 -5 -26 -1 -57z
m74 -76 c0 -20 -1 -20 -16 -5 -9 9 -18 29 -20 45 l-3 28 20 -24 c10 -13 19
-33 19 -44z"/>
<path d="M1525 2108 c-34 -27 -64 -91 -65 -138 0 -20 -7 -46 -16 -58 -21 -30
-6 -28 43 8 57 42 75 74 83 147 7 71 0 77 -45 41z m9 -75 c-4 -16 -13 -35 -20
-43 -12 -12 -14 -11 -14 9 0 27 17 61 31 61 5 0 7 -12 3 -27z"/>
<path d="M593 1994 c-8 -4 -5 -19 9 -52 35 -80 77 -133 122 -153 40 -18 126
-26 126 -11 -1 4 -21 22 -46 40 -24 18 -58 52 -74 74 -25 34 -30 37 -30 19 0
-12 7 -33 16 -46 17 -27 9 -32 -17 -12 -14 11 -59 88 -59 102 0 3 16 5 35 5
19 0 35 -4 35 -10 0 -27 152 -161 167 -147 10 11 -9 67 -37 105 -16 22 -47 48
-74 61 -45 21 -149 36 -173 25z"/>
<path d="M2087 1989 c-51 -12 -87 -32 -119 -66 -27 -28 -63 -111 -53 -121 7
-8 113 67 136 96 11 14 17 32 14 39 -2 8 0 11 5 8 6 -3 10 -1 10 4 0 6 18 11
41 11 37 0 40 -2 33 -22 -10 -35 -66 -108 -81 -108 -16 0 -17 -2 7 45 20 39
18 67 -2 30 -15 -28 -96 -103 -119 -110 -34 -11 -20 -25 26 -25 61 0 104 19
144 65 37 42 85 141 76 156 -7 11 -66 10 -118 -2z"/>
<path d="M1026 1893 c-9 -61 7 -145 38 -205 28 -53 9 -57 -23 -5 -26 44 -41
95 -49 168 -5 44 -12 65 -25 73 -48 29 -51 -80 -6 -199 22 -58 78 -117 128
-134 33 -11 91 -15 91 -7 0 3 -13 19 -30 37 -66 72 -74 107 -80 312 0 4 -9 7
-19 7 -15 0 -20 -10 -25 -47z"/>
<path d="M1729 1938 c-1 -2 -2 -43 -3 -93 -2 -101 -21 -156 -75 -217 -37 -42
-38 -48 -8 -48 119 0 204 103 222 271 6 57 5 67 -10 73 -28 10 -42 -11 -49
-72 -10 -78 -33 -147 -63 -182 -30 -37 -53 -40 -24 -4 34 43 52 115 49 195 -2
61 -6 74 -20 77 -10 2 -18 2 -19 0z"/>
<path d="M584 1713 c3 -10 17 -58 31 -108 65 -225 164 -326 345 -350 30 -4 64
-14 75 -21 11 -8 24 -14 30 -14 5 0 -13 15 -41 34 -64 43 -127 106 -222 221
-96 117 -96 116 -88 80 8 -32 55 -96 130 -180 25 -27 46 -53 46 -57 0 -4 -14
-3 -31 2 -76 22 -146 108 -193 238 -31 86 -32 102 -8 102 26 0 162 -74 210
-115 50 -43 118 -139 128 -181 l7 -29 -23 20 c-12 11 -41 44 -63 74 -66 89
-151 171 -178 171 -21 0 -16 -8 42 -67 36 -38 89 -97 118 -133 58 -71 116
-121 173 -151 41 -21 77 -26 40 -6 -13 8 -44 57 -77 124 -86 174 -155 238
-355 324 -50 21 -93 39 -96 39 -3 0 -3 -8 0 -17z"/>
<path d="M2114 1690 c-184 -75 -273 -156 -356 -327 -28 -57 -60 -110 -71 -118
-32 -23 -12 -18 42 9 67 34 101 65 183 165 39 47 94 109 121 138 41 42 46 51
27 46 -26 -7 -119 -95 -161 -151 -30 -42 -101 -113 -106 -108 -10 10 69 133
116 182 68 70 251 164 251 130 0 -17 -33 -110 -56 -161 -46 -101 -107 -161
-177 -179 -25 -6 -27 -5 -18 11 6 10 33 43 61 73 61 66 123 156 118 172 -2 6
-43 -36 -90 -93 -94 -115 -173 -193 -231 -228 -21 -13 -36 -26 -33 -29 3 -2
12 1 20 7 8 7 56 21 106 31 182 37 263 129 331 375 11 42 19 79 17 84 -2 4
-44 -9 -94 -29z"/>
<path d="M5 555 l0 -185 37 0 37 0 -5 58 c-3 31 -6 67 -8 80 -4 30 8 28 29 -5
10 -16 38 -52 63 -80 38 -45 50 -53 79 -53 l35 0 -44 53 c-24 28 -54 66 -65
83 l-22 30 35 27 c28 23 34 35 34 66 0 55 -29 87 -91 100 -27 6 -64 11 -82 11
l-32 0 0 -185z m108 134 c30 -16 37 -28 37 -65 0 -34 -11 -47 -53 -63 l-27
-11 0 75 c0 78 4 84 43 64z"/>
<path d="M305 555 l0 -185 92 0 92 0 16 31 c20 37 17 42 -21 30 -16 -5 -48
-12 -71 -14 l-43 -5 0 65 0 64 43 -6 c39 -6 45 -4 61 19 l16 26 -60 0 -60 0 0
61 0 61 38 -6 c20 -4 44 -9 53 -12 10 -3 19 3 23 13 3 10 9 24 12 31 4 9 -18
12 -93 12 l-98 0 0 -185z"/>
<path d="M692 699 c-52 -115 -118 -248 -139 -281 -12 -21 -23 -40 -23 -43 0
-11 81 -4 84 8 2 6 10 33 16 60 l13 47 67 0 67 0 17 -43 c9 -23 16 -50 16 -60
0 -14 9 -17 46 -17 l46 0 -22 33 c-12 17 -36 64 -55 102 -18 39 -51 108 -73
154 l-40 84 -20 -44z m44 -114 l21 -55 -47 0 -47 0 21 55 c11 30 23 55 26 55
3 0 15 -25 26 -55z"/>
<path d="M1177 612 c-33 -70 -74 -153 -93 -184 l-33 -58 42 0 43 0 14 58 15
57 70 0 70 0 20 -57 20 -58 42 0 43 0 -33 53 c-18 28 -59 108 -92 177 -32 69
-61 128 -64 132 -3 4 -32 -50 -64 -120z m102 -74 c1 -5 -20 -8 -45 -8 -25 0
-44 3 -42 8 2 4 12 29 23 56 l19 50 22 -50 c13 -27 23 -52 23 -56z"/>
<path d="M1449 714 c-5 -15 -8 -28 -7 -29 2 -1 27 1 56 5 42 5 55 4 59 -7 8
-19 -3 -274 -12 -295 -6 -15 -1 -18 32 -18 l39 0 -4 165 -4 166 26 -6 c14 -3
37 -7 50 -10 20 -4 26 1 35 25 l10 30 -135 0 -134 0 -11 -26z"/>
<path d="M1768 708 c4 -18 7 -87 7 -153 0 -66 -3 -135 -7 -152 l-7 -33 92 0
93 0 17 35 c18 38 15 40 -29 26 -16 -5 -46 -12 -68 -15 l-38 -5 3 164 4 165
-37 0 c-37 0 -37 0 -30 -32z"/>
<path d="M2025 555 l0 -185 95 0 96 0 16 36 c15 33 15 35 0 29 -17 -7 -38 -10
-104 -19 l-38 -5 0 65 c0 69 2 71 56 55 27 -8 32 -5 47 20 l16 29 -59 0 -60 0
0 61 0 61 38 -6 c20 -4 44 -9 53 -12 13 -4 39 30 39 51 0 3 -44 5 -97 5 l-98
0 0 -185z"/>
<path d="M2380 724 c-78 -34 -114 -97 -108 -189 7 -117 82 -172 219 -163 39 3
74 9 79 14 4 5 10 45 12 89 l4 80 -35 1 -36 1 0 -65 0 -66 -35 -8 c-80 -17
-141 31 -148 117 -8 100 36 155 125 155 26 0 60 -7 76 -14 27 -15 27 -15 27
18 0 29 -4 34 -31 40 -52 10 -112 6 -149 -10z"/>
<path d="M2735 592 c-39 -81 -80 -161 -92 -180 -13 -18 -23 -35 -23 -37 0 -3
20 -5 44 -5 41 0 44 2 49 33 3 17 10 44 16 60 10 26 14 27 74 27 l64 0 16 -37
c9 -21 17 -47 19 -58 3 -16 12 -21 46 -23 23 -2 42 0 42 3 0 4 -9 20 -20 36
-12 15 -52 94 -90 174 -37 81 -70 148 -72 150 -2 2 -35 -62 -73 -143z m115
-58 c0 -2 -21 -4 -46 -4 -50 0 -50 -1 -17 79 l15 36 24 -54 c13 -29 24 -55 24
-57z"/>
<path d="M395 130 c0 -118 0 -120 23 -120 21 0 22 3 16 56 l-7 57 35 -7 c28
-5 37 -3 42 10 9 24 9 24 -34 24 -39 0 -40 1 -40 36 l0 37 39 -6 c36 -4 51 4
51 29 0 2 -28 4 -62 4 l-63 0 0 -120z"/>
<path d="M584 216 c-29 -29 -34 -41 -34 -83 0 -82 39 -122 119 -123 47 0 57 4
87 34 30 30 34 40 34 86 0 46 -4 56 -34 86 -30 30 -40 34 -86 34 -46 0 -56 -4
-86 -34z m141 -22 c18 -20 25 -38 25 -69 0 -52 -23 -83 -67 -91 -74 -14 -126
105 -71 163 30 33 81 31 113 -3z"/>
<path d="M838 158 c6 -126 14 -142 76 -146 27 -2 54 2 59 7 14 14 30 14 22 1
-3 -6 3 -10 14 -10 19 0 20 8 23 120 l3 120 -25 0 c-25 0 -25 -1 -22 -75 5
-93 -2 -123 -33 -137 -19 -9 -29 -7 -50 6 -24 16 -25 21 -25 111 0 93 -1 95
-23 95 -23 0 -23 -1 -19 -92z"/>
<path d="M1085 230 c16 -17 17 -33 12 -120 -5 -97 -5 -100 16 -100 20 0 22 4
19 53 -2 30 -2 66 0 82 3 25 7 21 58 -54 40 -59 61 -81 77 -81 21 0 22 4 25
120 l3 120 -25 0 -25 0 6 -87 c5 -82 4 -103 -4 -92 -37 48 -109 154 -114 165
-3 8 -18 14 -36 14 -29 0 -30 0 -12 -20z"/>
<path d="M1345 131 l0 -121 47 0 c79 0 117 28 132 97 9 39 -14 96 -47 118 -14
9 -49 19 -79 22 l-53 5 0 -121z m95 74 c35 -18 55 -71 41 -108 -12 -30 -47
-57 -76 -57 -19 0 -20 6 -20 90 0 98 3 102 55 75z"/>
<path d="M1620 154 c-24 -53 -52 -107 -63 -120 l-18 -24 29 0 c24 0 31 5 38
33 9 31 12 32 59 32 47 0 50 -1 59 -32 7 -27 14 -33 36 -33 l27 0 -60 117
c-33 65 -61 119 -62 121 -1 1 -22 -41 -45 -94z m68 -40 c-4 -3 -17 -4 -30 -2
-24 3 -24 4 -10 38 l14 35 16 -32 c9 -18 13 -35 10 -39z"/>
<path d="M1806 234 c-9 -24 -9 -25 35 -18 l41 7 -4 -107 c-3 -103 -3 -106 18
-106 21 0 22 2 16 107 l-5 106 36 -6 c32 -5 47 4 47 29 0 2 -40 4 -89 4 -72 0
-90 -3 -95 -16z"/>
<path d="M2020 130 c0 -118 0 -120 23 -120 22 0 22 2 22 120 0 118 0 120 -22
120 -23 0 -23 -2 -23 -120z"/>
<path d="M2163 230 c-41 -25 -53 -48 -53 -105 0 -40 5 -52 34 -81 30 -30 40
-34 85 -34 59 0 94 19 110 58 24 63 17 108 -23 148 -28 28 -41 34 -77 34 -26
0 -57 -8 -76 -20z m114 -25 c32 -23 46 -80 28 -121 -25 -60 -80 -71 -126 -25
-79 79 9 209 98 146z"/>
<path d="M2395 230 c16 -17 17 -33 12 -120 -5 -97 -5 -100 16 -100 20 0 22 4
19 53 -2 30 -2 66 0 82 3 25 7 21 58 -54 40 -59 61 -81 77 -81 21 0 22 4 25
120 l3 120 -25 0 -25 0 6 -92 c3 -51 5 -94 4 -95 -2 -4 -116 159 -122 174 -3
7 -19 13 -36 13 -29 0 -30 0 -12 -20z"/>
</g>
</svg>
